<?xml version="1.0" encoding="UTF-8"?>
<svg width="24px" height="23px" viewBox="0 0 24 23" version="1.1" xmlns="http://www.w3.org/2000/svg" xmlns:xlink="http://www.w3.org/1999/xlink">
    <!-- Generator: Sketch 52.2 (67145) - http://www.bohemiancoding.com/sketch -->
    <title>map-location</title>
    <desc>Created with Sketch.</desc>
    <g id="Page-1" stroke="none" stroke-width="1" fill="none" fill-rule="evenodd">
        <g id="Artboard" transform="translate(-26.000000, -16.000000)" fill="#9B9B9B" fill-rule="nonzero">
            <g id="map-location" transform="translate(26.000000, 16.000000)">
                <path d="M22.152,9.37590741 L17.481,9.37590741 C17.244,9.37590741 17.0524286,9.5662963 17.0524286,9.80183333 C17.0524286,10.0373704 17.244,10.2277593 17.481,10.2277593 L21.3818571,10.2277593 L22.6242857,21.7277593 L0.972,21.7277593 L2.43042857,10.2277593 L6.33814286,10.2277593 C6.57514286,10.2277593 6.76671429,10.0373704 6.76671429,9.80183333 C6.76671429,9.5662963 6.57514286,9.37590741 6.33814286,9.37590741 L1.67442857,9.37590741 L0,22.5796111 L23.5787143,22.5796111 L22.152,9.37590741 Z" id="Shape"></path>
                <path d="M11.4231429,16.1715556 C11.3601429,16.2086111 11.2928571,16.2414074 11.2324286,16.2801667 C11.1381429,16.3406481 11.046,16.4041111 10.9555714,16.4697037 C10.7648571,16.6089815 10.7237143,16.8756111 10.8634286,17.0651481 C10.9474286,17.1788704 11.0777143,17.2389259 11.2097143,17.2389259 C11.2975714,17.2389259 11.3862857,17.2120926 11.463,17.1567222 C11.5392857,17.1009259 11.6168571,17.0472593 11.6978571,16.9952963 C11.8354286,16.9067037 11.9815714,16.8236481 12.1324286,16.7478333 C12.333,16.6468889 12.4144286,16.4109259 12.3304286,16.2073333 C12.3338571,16.2039259 12.3381429,16.2013704 12.3411429,16.197963 C13.1164286,15.3818889 15.729,12.3237407 16.8107143,7.22881481 C17.0301429,6.19551852 17.0794286,5.20396296 16.9572857,4.28183333 C16.5887143,1.48137037 14.838,0.000851851852 11.8945714,0.000851851852 C8.952,0.000851851852 7.20128571,1.48137037 6.83185714,4.28183333 C6.71014286,5.20438889 6.75942857,6.19594444 6.97885714,7.22881481 C8.04985714,12.2743333 10.6212857,15.3205556 11.4231429,16.1715556 Z M7.68171429,4.393 C7.99585714,2.01122222 9.37414286,0.85312963 11.895,0.85312963 C14.4162857,0.85312963 15.7941429,2.01122222 16.1078571,4.393 C16.2171429,5.2192963 16.1712857,6.11501852 15.9724286,7.05375926 C15,11.6337407 12.6814286,14.5398333 11.895,15.4215 C11.1077143,14.5389815 8.78957143,11.6316111 7.81757143,7.05375926 C7.61828571,6.11501852 7.57285714,5.21972222 7.68171429,4.393 Z" id="Shape"></path>
                <path d="M11.895,8.06064815 C13.6311429,8.06064815 15.0432857,6.65722222 15.0432857,4.9317963 C15.0432857,3.20637037 13.6311429,1.80294444 11.895,1.80294444 C10.1588571,1.80294444 8.74671429,3.20637037 8.74671429,4.9317963 C8.74671429,6.65722222 10.1588571,8.06064815 11.895,8.06064815 Z M11.895,2.65522222 C13.158,2.65522222 14.1861429,3.67659259 14.1861429,4.93222222 C14.1861429,6.18785185 13.1584286,7.20922222 11.895,7.20922222 C10.6315714,7.20922222 9.60385714,6.18785185 9.60385714,4.93222222 C9.60385714,3.67659259 10.632,2.65522222 11.895,2.65522222 Z" id="Shape"></path>
                <path d="M13.4691429,15.4057407 C13.2377143,15.4542963 13.0902857,15.6808889 13.1395714,15.9113148 C13.1824286,16.1115 13.3602857,16.2482222 13.5582857,16.2482222 C13.5878571,16.2482222 13.6182857,16.2452407 13.6482857,16.2388519 C13.8994286,16.186037 14.1715714,16.1413148 14.4565714,16.105537 C14.6914286,16.077 14.8585714,15.864037 14.829,15.6306296 C14.7998571,15.3967963 14.5877143,15.2281296 14.3511429,15.2605 C14.0412857,15.2984074 13.7442857,15.3473889 13.4691429,15.4057407 Z" id="Shape"></path>
                <path d="M15.6852857,15.5786667 C15.6947143,15.8073889 15.885,15.9862778 16.113,15.9862778 C16.1194286,15.9862778 16.1254286,15.9862778 16.1318571,15.9858519 L16.9894286,15.9505 C17.2255714,15.9398519 17.409,15.7405185 17.3978571,15.5058333 C17.3871429,15.2702963 17.1668571,15.0867222 16.9504286,15.0995 L16.095,15.1348519 C15.8584286,15.1446481 15.675,15.3431296 15.6852857,15.5786667 Z" id="Shape"></path>
                <path d="M9.61414286,17.5383519 C9.39385714,17.7036111 9.16628571,17.8624815 8.937,18.0098519 C8.73857143,18.1380556 8.682,18.4017037 8.811,18.5993333 C8.89285714,18.7249815 9.03085714,18.7931296 9.171,18.7931296 C9.25114286,18.7931296 9.33171429,18.7709815 9.40414286,18.7245556 C9.64971429,18.5661111 9.89442857,18.3957407 10.1305714,18.2185556 C10.3191429,18.0767222 10.3568571,17.8096667 10.2145714,17.6218333 C10.0718571,17.4357037 9.804,17.3965185 9.61414286,17.5383519 Z" id="Shape"></path>
                <path d="M19.1657143,14.7297963 C19.0208571,14.8307407 18.8327143,14.904 18.5888571,14.9538333 C18.357,15.0011111 18.2078571,15.2268519 18.2558571,15.4572778 C18.2978571,15.6587407 18.4761429,15.7971667 18.6754286,15.7971667 C18.7041429,15.7971667 18.7332857,15.7941852 18.7624286,15.7882222 C19.1232857,15.7141111 19.4164286,15.5957037 19.6607143,15.4249074 L19.7181429,15.3831667 C19.9067143,15.2409074 19.944,14.9738519 19.8012857,14.7864444 C19.6581429,14.599037 19.3898571,14.5624074 19.2008571,14.7038148 L19.1657143,14.7297963 Z" id="Shape"></path>
                <path d="M3.79714286,18.0601111 C3.85928571,17.8330926 3.72385714,17.5992593 3.49542857,17.5379259 C3.26871429,17.474463 3.03171429,17.6099074 2.97,17.8377778 C2.916,18.0354074 2.88385714,18.2372963 2.87357143,18.4362037 C2.87142857,18.4851852 2.87014286,18.5345926 2.87014286,18.5865556 C2.87057143,18.670037 2.87442857,18.7535185 2.88257143,18.8365741 C2.90528571,19.0559259 3.09128571,19.2190556 3.30857143,19.2190556 C3.32271429,19.2190556 3.33728571,19.2182037 3.35271429,19.2169259 C3.588,19.1926481 3.75942857,18.9839444 3.73585714,18.7496852 C3.72985714,18.6938889 3.72771429,18.6372407 3.72728571,18.5835741 C3.72728571,18.5482222 3.72857143,18.5128704 3.73028571,18.4779444 C3.73714286,18.3399444 3.75942857,18.198963 3.79714286,18.0601111 Z" id="Shape"></path>
                <path d="M19.1562857,11.4190741 C18.816,11.3739259 18.4688571,11.4016111 18.1337143,11.4961667 C17.9057143,11.5596296 17.7732857,11.7951667 17.838,12.0213333 C17.8911429,12.2091667 18.063,12.3318333 18.2498571,12.3318333 C18.2888571,12.3318333 18.3278571,12.3267222 18.3664286,12.3156481 C18.5892857,12.253463 18.8185714,12.2338704 19.0414286,12.2636852 C19.2822857,12.2935 19.4922857,12.1312222 19.5235714,11.8986667 C19.5552857,11.6648333 19.3907143,11.4505926 19.1562857,11.4190741 Z" id="Shape"></path>
                <path d="M20.0091429,13.5291111 C19.9392857,13.7535741 20.0661429,13.9925185 20.292,14.0615185 C20.3344286,14.0747222 20.3764286,14.0806852 20.4184286,14.0806852 C20.6018571,14.0806852 20.7711429,13.9635556 20.8277143,13.7804074 C20.8701429,13.644963 20.8962857,13.5073889 20.9061429,13.3702407 C20.9082857,13.3348889 20.9095714,13.2991111 20.9095714,13.2637593 C20.9095714,13.0644259 20.8727143,12.8646667 20.8002857,12.6708704 C20.718,12.4498148 20.4698571,12.3382222 20.2495714,12.4195741 C20.0271429,12.5013519 19.9144286,12.7466852 19.9967143,12.9668889 C20.0335714,13.0657037 20.0524286,13.1657963 20.0524286,13.2633333 L20.0511429,13.3131667 C20.046,13.3838704 20.0322857,13.4545741 20.0091429,13.5291111 Z" id="Shape"></path>
                <path d="M7.49185714,18.8105926 C7.24071429,18.9277222 6.98485714,19.0363333 6.73157143,19.1338704 C6.51085714,19.2182037 6.40114286,19.4648148 6.48642857,19.6845926 C6.552,19.8532593 6.714,19.9571852 6.88628571,19.9571852 C6.93771429,19.9571852 6.99,19.9482407 7.04057143,19.9286481 C7.31271429,19.8242963 7.587,19.7075926 7.85614286,19.5823704 C8.07042857,19.4827037 8.16257143,19.2288519 8.06185714,19.0158889 C7.962,18.8025 7.70742857,18.7100741 7.49185714,18.8105926 Z" id="Shape"></path>
                <path d="M4.37185714,17.037463 C4.44085714,17.037463 4.51114286,17.0208519 4.57671429,16.9855 C4.70014286,16.9186296 4.83171429,16.8768889 4.96714286,16.8624074 C5.025,16.8555926 5.08414286,16.8555926 5.14114286,16.8632593 C5.38242857,16.8943519 5.59114286,16.7299444 5.622,16.496963 C5.65285714,16.2635556 5.48785714,16.0497407 5.25342857,16.0190741 C5.12571429,16.002463 4.99585714,16.0016111 4.87157143,16.0156667 C4.62557143,16.0425 4.38814286,16.117463 4.16614286,16.2375741 C3.95828571,16.3504444 3.88157143,16.6085556 3.99514286,16.8151296 C4.07314286,16.9573889 4.22014286,17.037463 4.37185714,17.037463 Z" id="Shape"></path>
                <path d="M4.28271429,20.3771481 C4.37528571,20.401 4.46957143,20.4188889 4.563,20.429963 C4.67271429,20.4431667 4.78242857,20.4499815 4.89257143,20.4499815 C5.02671429,20.4499815 5.16128571,20.4406111 5.29542857,20.4235741 C5.53028571,20.3941852 5.697,20.1812222 5.667,19.9478148 C5.637,19.7144074 5.424,19.55 5.18828571,19.578537 C5.01514286,19.6006852 4.84028571,19.6057963 4.66714286,19.5849259 C4.61057143,19.5776852 4.554,19.567037 4.49828571,19.5529815 C4.269,19.4920741 4.03542857,19.6300741 3.97542857,19.8579444 C3.91671429,20.0858148 4.05385714,20.3183704 4.28271429,20.3771481 Z" id="Shape"></path>
            </g>
        </g>
    </g>
</svg>