<?xml version="1.0" encoding="UTF-8"?>
<svg width="24px" height="24px" viewBox="0 0 24 24" version="1.1" xmlns="http://www.w3.org/2000/svg" xmlns:xlink="http://www.w3.org/1999/xlink">
    <!-- Generator: Sketch 52.2 (67145) - http://www.bohemiancoding.com/sketch -->
    <title>pen</title>
    <desc>Created with Sketch.</desc>
    <g id="Page-1" stroke="none" stroke-width="1" fill="none" fill-rule="evenodd">
        <g id="Artboard" transform="translate(-152.000000, -15.000000)" fill="#9B9B9B" fill-rule="nonzero">
            <g id="pen" transform="translate(152.000000, 15.000000)">
                <path d="M22.5505714,1.12757143 C21.0462857,-0.375857143 18.5995714,-0.375857143 17.0952857,1.12757143 L1.64014286,16.5827143 C1.63285714,16.59 1.62857143,16.599 1.62214286,16.6067143 C1.61314286,16.617 1.60542857,16.6281429 1.59728571,16.6392857 C1.57457143,16.671 1.557,16.7048571 1.54371429,16.7417143 C1.53985714,16.7528571 1.53428571,16.7627143 1.53128571,16.7738571 C1.53,16.7781429 1.52742857,16.7824286 1.52614286,16.7867143 L0.0111428571,23.151 C0.00428571429,23.1797143 0.00257142857,23.2088571 0.00171428571,23.2375714 C0.00171428571,23.2431429 0,23.2482857 0,23.2538571 C0.000428571429,23.3027143 0.0111428571,23.3502857 0.0278571429,23.3961429 C0.0317142857,23.4068571 0.036,23.4162857 0.0407142857,23.4265714 C0.0617142857,23.4724286 0.0878571429,23.5165714 0.124714286,23.5534286 C0.165428571,23.5941429 0.213428571,23.6254286 0.265285714,23.6468571 C0.317142857,23.6682857 0.372428571,23.679 0.427714286,23.679 C0.460714286,23.679 0.494142857,23.6751429 0.526714286,23.6674286 L6.891,22.1524286 C6.90257143,22.1498571 6.91285714,22.1434286 6.924,22.1395714 C6.93857143,22.1348571 6.95228571,22.1292857 6.96642857,22.1228571 C6.99728571,22.1087143 7.026,22.0911429 7.05257143,22.0701429 C7.06285714,22.062 7.07357143,22.056 7.08342857,22.047 C7.08685714,22.0435714 7.09114286,22.0418571 7.09457143,22.0384286 L22.5501429,6.58285714 C24.0544286,5.07857143 24.0544286,2.63142857 22.5505714,1.12757143 Z M21.9445714,1.73357143 C23.0108571,2.80028571 23.1017143,4.47514286 22.2231429,5.64942857 L18.0287143,1.455 C19.2034286,0.576428571 20.8782857,0.667285714 21.9445714,1.73357143 Z M19.8231429,8.09785714 L15.5802857,3.855 L16.1862857,3.249 L20.4291429,7.49185714 L19.8231429,8.09785714 Z M2.12614286,21.552 C1.95857143,21.3844286 1.68771429,21.3844286 1.52014286,21.552 L1.19571429,21.8764286 L2.29028571,17.2787143 L4.18542857,17.0682857 L3.94157143,19.2634286 C3.93985714,19.2797143 3.94585714,19.2947143 3.94585714,19.3105714 C3.94585714,19.3268571 3.93985714,19.3414286 3.94157143,19.3577143 C3.94328571,19.3718571 3.95057143,19.3834286 3.95357143,19.3971429 C3.95871429,19.422 3.966,19.4447143 3.975,19.4678571 C3.98614286,19.4957143 3.99942857,19.521 4.01571429,19.5454286 C4.029,19.5651429 4.04228571,19.5827143 4.05857143,19.5998571 C4.07914286,19.6217143 4.10142857,19.6401429 4.12585714,19.6572857 C4.14514286,19.6705714 4.16357143,19.683 4.185,19.6932857 C4.21328571,19.7065714 4.24285714,19.7142857 4.27371429,19.7215714 C4.29,19.7254286 4.30328571,19.7344286 4.32,19.7365714 C4.33542857,19.7382857 4.35085714,19.7391429 4.36671429,19.7391429 C4.36671429,19.7391429 4.36714286,19.7391429 4.36714286,19.7391429 C4.36714286,19.7391429 4.36757143,19.7391429 4.36757143,19.7391429 L4.368,19.7391429 C4.368,19.7391429 4.36842857,19.7391429 4.36842857,19.7391429 C4.38385714,19.7391429 4.39971429,19.7382857 4.41514286,19.7365714 L6.61028571,19.4927143 L6.39985714,21.3878571 L1.80171429,22.4824286 L2.12614286,22.158 C2.29328571,21.9908571 2.29328571,21.7195714 2.12614286,21.552 Z M7.50471429,19.2038571 L17.0952857,9.61285714 C17.2628571,9.44528571 17.2628571,9.17442857 17.0952857,9.00685714 C16.9277143,8.83928571 16.6568571,8.83928571 16.4892857,9.00685714 L6.89871429,18.5978571 L4.85314286,18.825 L5.08028571,16.7794286 L14.6717143,7.18885714 C14.8392857,7.02128571 14.8392857,6.75042857 14.6717143,6.58285714 C14.5041429,6.41528571 14.2332857,6.41528571 14.0657143,6.58285714 L4.47428571,16.1734286 L3.11014286,16.3251429 L14.9742857,4.461 L19.2171429,8.70385714 L7.353,20.568 L7.50471429,19.2038571 Z M21.0351429,6.88585714 L16.7922857,2.643 L17.3987143,2.03657143 L21.6415714,6.27942857 L21.0351429,6.88585714 Z" id="Shape"></path>
            </g>
        </g>
    </g>
</svg>