<?xml version="1.0" encoding="UTF-8"?>
<svg width="24px" height="24px" viewBox="0 0 24 24" version="1.1" xmlns="http://www.w3.org/2000/svg" xmlns:xlink="http://www.w3.org/1999/xlink">
    <!-- Generator: Sketch 52.2 (67145) - http://www.bohemiancoding.com/sketch -->
    <title>route</title>
    <desc>Created with Sketch.</desc>
    <g id="Page-1" stroke="none" stroke-width="1" fill="none" fill-rule="evenodd">
        <g id="Artboard" transform="translate(-210.000000, -16.000000)" fill="#9B9B9B" fill-rule="nonzero">
            <g id="route" transform="translate(210.000000, 16.000000)">
                <path d="M8.4084,11.5908 C7.5,10.5648 6.2888,10 4.9972,10 C3.7056,10 2.4944,10.5648 1.5864,11.5908 C-0.2584,13.6752 -0.2584,17.066 1.5864,19.1504 L4.9972,23.0036 L8.408,19.1504 C10.2532,17.066 10.2532,13.6752 8.4084,11.5908 Z M7.8092,18.62 L4.9976,21.7964 L2.1856,18.62 C0.5992,16.8284 0.5992,13.9128 2.1856,12.1212 C2.9396,11.2692 3.9384,10.8 4.9972,10.8 C6.056,10.8 7.0552,11.2692 7.8088,12.1212 C9.3952,13.9128 9.3952,16.828 7.8092,18.62 Z" id="Shape"></path>
                <path d="M19.4988,9.8028 L22.0844,6.8884 C23.4756,5.3204 23.4756,2.77 22.0844,1.202 C21.3964,0.4268 20.478,0 19.4984,0 C18.5192,0 17.6008,0.4268 16.9128,1.202 C15.5216,2.77 15.5216,5.3204 16.9128,6.8884 L19.4988,9.8028 Z M17.5112,1.7332 C18.0452,1.1312 18.7508,0.8 19.4984,0.8 C20.2464,0.8 20.952,1.1312 21.486,1.7332 C22.6172,3.008 22.6172,5.0824 21.486,6.3572 L19.4988,8.5976 L17.5112,6.3572 C16.38,5.0824 16.38,3.008 17.5112,1.7332 Z" id="Shape"></path>
                <path d="M21.0416,21.8068 C20.826,21.7584 20.612,21.8936 20.5636,22.1092 C20.5176,22.3132 20.4284,22.5008 20.2984,22.666 C20.162,22.8396 20.1916,23.0912 20.3656,23.2276 C20.4392,23.2852 20.526,23.3132 20.6124,23.3132 C20.7312,23.3132 20.8484,23.2608 20.9272,23.1604 C21.1288,22.9044 21.2728,22.602 21.344,22.2852 C21.3924,22.0692 21.2572,21.8552 21.0416,21.8068 Z" id="Shape"></path>
                <path d="M12.798,12.4 C12.6248,12.3996 12.4564,12.3688 12.2972,12.308 C12.0924,12.23 11.86,12.3328 11.7808,12.5392 C11.7024,12.7456 11.806,12.9768 12.012,13.0556 C12.2624,13.1508 12.526,13.1996 12.7972,13.2 L12.94,13.2 C13.1612,13.2 13.34,13.0212 13.34,12.8 C13.34,12.5788 13.1612,12.4 12.94,12.4 L12.798,12.4 Z" id="Shape"></path>
                <path d="M11.8484,9.8704 C11.9208,9.8704 11.9936,9.8508 12.0596,9.81 C12.2368,9.6996 12.4328,9.632 12.6412,9.6088 C12.8608,9.5844 13.0192,9.3868 12.9952,9.1672 C12.9712,8.9476 12.7748,8.7908 12.5536,8.8132 C12.2248,8.8496 11.916,8.956 11.636,9.1308 C11.4484,9.2476 11.3916,9.4944 11.5084,9.682 C11.5844,9.8036 11.7148,9.8704 11.8484,9.8704 Z" id="Shape"></path>
                <path d="M7.2256,23.2 L6.4256,23.2 C6.2044,23.2 6.0256,23.3788 6.0256,23.6 C6.0256,23.8212 6.2044,24 6.4256,24 L7.2256,24 C7.4468,24 7.6256,23.8212 7.6256,23.6 C7.6256,23.3788 7.4464,23.2 7.2256,23.2 Z" id="Shape"></path>
                <path d="M14.3972,16 C14.3628,16 14.3288,16.0008 14.2948,16.0024 C14.074,16.0112 13.9028,16.1976 13.9116,16.4184 C13.92,16.6336 14.0976,16.802 14.3108,16.802 C14.3164,16.802 14.322,16.802 14.3276,16.8016 L15.1112,16.8 C15.3324,16.8 15.5112,16.6212 15.5112,16.4 C15.5112,16.1788 15.3324,16 15.1112,16 L14.3972,16 Z" id="Shape"></path>
                <path d="M14.1972,9.6 L14.9972,9.6 C15.2184,9.6 15.3972,9.4212 15.3972,9.2 C15.3972,8.9788 15.2184,8.8 14.9972,8.8 L14.1972,8.8 C13.976,8.8 13.7972,8.9788 13.7972,9.2 C13.7972,9.4212 13.976,9.6 14.1972,9.6 Z" id="Shape"></path>
                <path d="M19.1112,16 C18.89,16 18.7112,16.1788 18.7112,16.4 C18.7112,16.6212 18.89,16.8 19.1112,16.8 L19.9112,16.8 C20.1324,16.8 20.3112,16.6212 20.3112,16.4 C20.3112,16.1788 20.1324,16 19.9112,16 L19.1112,16 Z" id="Shape"></path>
                <path d="M20.5404,12.8 C20.5404,12.5788 20.3616,12.4 20.1404,12.4 L19.3404,12.4 C19.1192,12.4 18.9404,12.5788 18.9404,12.8 C18.9404,13.0212 19.1192,13.2 19.3404,13.2 L20.1404,13.2 C20.3612,13.2 20.5404,13.0212 20.5404,12.8 Z" id="Shape"></path>
                <path d="M16.7112,16.8 L17.5112,16.8 C17.7324,16.8 17.9112,16.6212 17.9112,16.4 C17.9112,16.1788 17.7324,16 17.5112,16 L16.7112,16 C16.49,16 16.3112,16.1788 16.3112,16.4 C16.3112,16.6212 16.4904,16.8 16.7112,16.8 Z" id="Shape"></path>
                <path d="M17.3972,9.6 C17.6184,9.6 17.7972,9.4212 17.7972,9.2 C17.7972,8.9788 17.6184,8.8 17.3972,8.8 L16.5972,8.8 C16.376,8.8 16.1972,8.9788 16.1972,9.2 C16.1972,9.4212 16.376,9.6 16.5972,9.6 L17.3972,9.6 Z" id="Shape"></path>
                <path d="M14.5404,12.4 C14.3192,12.4 14.1404,12.5788 14.1404,12.8 C14.1404,13.0212 14.3192,13.2 14.5404,13.2 L15.3404,13.2 C15.5616,13.2 15.7404,13.0212 15.7404,12.8 C15.7404,12.5788 15.5616,12.4 15.3404,12.4 L14.5404,12.4 Z" id="Shape"></path>
                <path d="M18.1404,12.8 C18.1404,12.5788 17.9616,12.4 17.7404,12.4 L16.9404,12.4 C16.7192,12.4 16.5404,12.5788 16.5404,12.8 C16.5404,13.0212 16.7192,13.2 16.9404,13.2 L17.7404,13.2 C17.9612,13.2 18.1404,13.0212 18.1404,12.8 Z" id="Shape"></path>
                <path d="M23.7704,14.2528 C23.7352,14.0344 23.5292,13.8852 23.312,13.9212 C23.0936,13.956 22.9452,14.1616 22.9804,14.3796 C22.9916,14.4508 22.998,14.5232 22.9972,14.6004 C22.9972,14.7348 22.978,14.8676 22.9404,14.9956 C22.8784,15.2076 22.9996,15.43 23.212,15.492 C23.2496,15.5028 23.2872,15.508 23.3244,15.508 C23.4976,15.508 23.6572,15.3952 23.7084,15.2204 C23.7672,15.0192 23.7972,14.8108 23.7972,14.6032 C23.798,14.488 23.7892,14.37 23.7704,14.2528 Z" id="Shape"></path>
                <path d="M16.8256,23.2 L16.0256,23.2 C15.8044,23.2 15.6256,23.3788 15.6256,23.6 C15.6256,23.8212 15.8044,24 16.0256,24 L16.8256,24 C17.0468,24 17.2256,23.8212 17.2256,23.6 C17.2256,23.3788 17.0464,23.2 16.8256,23.2 Z" id="Shape"></path>
                <path d="M14.4256,23.2 L13.6256,23.2 C13.4044,23.2 13.2256,23.3788 13.2256,23.6 C13.2256,23.8212 13.4044,24 13.6256,24 L14.4256,24 C14.6468,24 14.8256,23.8212 14.8256,23.6 C14.8256,23.3788 14.6464,23.2 14.4256,23.2 Z" id="Shape"></path>
                <path d="M18.826,20 C18.826,19.7788 18.6472,19.6 18.426,19.6 L17.626,19.6 C17.4048,19.6 17.226,19.7788 17.226,20 C17.226,20.2212 17.4048,20.4 17.626,20.4 L18.426,20.4 C18.6468,20.4 18.826,20.2212 18.826,20 Z" id="Shape"></path>
                <path d="M16.426,20 C16.426,19.7788 16.2472,19.6 16.026,19.6 L15.226,19.6 C15.0048,19.6 14.826,19.7788 14.826,20 C14.826,20.2212 15.0048,20.4 15.226,20.4 L16.026,20.4 C16.2468,20.4 16.426,20.2212 16.426,20 Z" id="Shape"></path>
                <path d="M19.1972,23.2 L18.4252,23.2 C18.204,23.2 18.0252,23.3788 18.0252,23.6 C18.0252,23.8212 18.204,24 18.4252,24 L19.2136,23.9996 L19.2252,23.5996 L19.2252,23.9996 C19.4464,23.9996 19.6112,23.8208 19.6112,23.5996 C19.6112,23.3788 19.4184,23.2 19.1972,23.2 Z" id="Shape"></path>
                <path d="M20.6124,21.0876 C20.6988,21.0876 20.7864,21.0596 20.8592,21.002 C21.0332,20.8652 21.0628,20.6136 20.9264,20.4404 C20.7252,20.1848 20.4656,19.9736 20.1748,19.8292 C19.976,19.7304 19.7368,19.8116 19.6384,20.0092 C19.54,20.2072 19.6208,20.4472 19.8184,20.5456 C20.0036,20.6372 20.1692,20.772 20.2972,20.9352 C20.3764,21.0352 20.4936,21.0876 20.6124,21.0876 Z" id="Shape"></path>
                <path d="M22.138,15.8916 C21.9664,15.9636 21.7848,16 21.5972,16 L21.5112,16 C21.29,16 21.1112,16.1788 21.1112,16.4 C21.1112,16.6212 21.29,16.8 21.5112,16.8 L21.5972,16.8 C21.8916,16.8 22.1776,16.7424 22.4472,16.6292 C22.6512,16.5436 22.7468,16.3092 22.6612,16.1056 C22.576,15.902 22.34,15.806 22.138,15.8916 Z" id="Shape"></path>
                <path d="M11.2116,11.942 C11.4212,11.8728 11.5356,11.6468 11.4668,11.4368 C11.4208,11.2964 11.3972,11.1496 11.3972,11.0016 C11.3976,10.9412 11.4012,10.8808 11.4084,10.822 C11.436,10.6028 11.2808,10.4024 11.0616,10.3752 C10.8356,10.35 10.642,10.5036 10.6148,10.722 C10.6036,10.8124 10.5976,10.9044 10.5972,10.9996 C10.5972,11.2348 10.634,11.466 10.7064,11.6868 C10.762,11.8552 10.9184,11.962 11.0864,11.962 C11.128,11.962 11.1704,11.956 11.2116,11.942 Z" id="Shape"></path>
                <path d="M9.6256,23.2 L8.8256,23.2 C8.6044,23.2 8.4256,23.3788 8.4256,23.6 C8.4256,23.8212 8.6044,24 8.8256,24 L9.6256,24 C9.8468,24 10.0256,23.8212 10.0256,23.6 C10.0256,23.3788 9.8464,23.2 9.6256,23.2 Z" id="Shape"></path>
                <path d="M13.6488,20.2376 C13.8008,20.2376 13.9456,20.1508 14.0128,20.004 C14.1044,19.8028 14.0164,19.5656 13.8156,19.474 C13.628,19.388 13.458,19.2588 13.3244,19.0996 C13.182,18.9304 12.93,18.9084 12.7608,19.0508 C12.5916,19.1928 12.5696,19.4452 12.712,19.6144 C12.9216,19.8636 13.188,20.0668 13.4828,20.2012 C13.5368,20.2256 13.5932,20.2376 13.6488,20.2376 Z" id="Shape"></path>
                <path d="M22.6984,12.6952 C22.4128,12.5296 22.1008,12.4324 21.7716,12.4064 C21.552,12.3904 21.3588,12.5532 21.3416,12.774 C21.3244,12.9944 21.4888,13.1868 21.7092,13.204 C21.918,13.2204 22.116,13.282 22.2972,13.3872 C22.3604,13.424 22.4296,13.4412 22.4976,13.4412 C22.6356,13.4412 22.77,13.3696 22.844,13.242 C22.9548,13.0512 22.8896,12.8064 22.6984,12.6952 Z" id="Shape"></path>
                <path d="M12.0256,23.2 L11.2256,23.2 C11.0044,23.2 10.8256,23.3788 10.8256,23.6 C10.8256,23.8212 11.0044,24 11.2256,24 L12.0256,24 C12.2468,24 12.4256,23.8212 12.4256,23.6 C12.4256,23.3788 12.2464,23.2 12.0256,23.2 Z" id="Shape"></path>
                <path d="M13.022,17.9356 C13.0616,17.73 13.1448,17.54 13.2696,17.3704 C13.4004,17.1928 13.3624,16.9424 13.1844,16.8112 C13.0064,16.6808 12.7564,16.7184 12.6252,16.8964 C12.4296,17.1628 12.2984,17.4616 12.236,17.7852 C12.1944,18.002 12.3364,18.2116 12.5536,18.2536 C12.5788,18.2584 12.6044,18.2608 12.6292,18.2608 C12.8172,18.26 12.9848,18.1268 13.022,17.9356 Z" id="Shape"></path>
                <path d="M19.5972,6 C20.81,6 21.7972,5.0128 21.7972,3.8 C21.7972,2.5872 20.81,1.6 19.5972,1.6 C18.3844,1.6 17.3972,2.5872 17.3972,3.8 C17.3972,5.0128 18.3844,6 19.5972,6 Z M19.5972,2.4 C20.3692,2.4 20.9972,3.028 20.9972,3.8 C20.9972,4.572 20.3692,5.2 19.5972,5.2 C18.8252,5.2 18.1972,4.572 18.1972,3.8 C18.1972,3.028 18.8256,2.4 19.5972,2.4 Z" id="Shape"></path>
                <path d="M4.9972,12.4 C3.6736,12.4 2.5972,13.4764 2.5972,14.8 C2.5972,16.1236 3.6736,17.2 4.9972,17.2 C6.3208,17.2 7.3972,16.1236 7.3972,14.8 C7.3972,13.4764 6.3208,12.4 4.9972,12.4 Z M4.9972,16.4 C4.1148,16.4 3.3972,15.6824 3.3972,14.8 C3.3972,13.9176 4.1148,13.2 4.9972,13.2 C5.8796,13.2 6.5972,13.9176 6.5972,14.8 C6.5972,15.6824 5.8796,16.4 4.9972,16.4 Z" id="Shape"></path>
            </g>
        </g>
    </g>
</svg>