<?xml version="1.0" encoding="UTF-8"?>
<svg width="894px" height="999px" viewBox="0 0 894 999" version="1.1" xmlns="http://www.w3.org/2000/svg" xmlns:xlink="http://www.w3.org/1999/xlink">
    <!-- Generator: Sketch 52.2 (67145) - http://www.bohemiancoding.com/sketch -->
    <title>gas station</title>
    <desc>Created with Sketch.</desc>
    <g id="Page-1" stroke="none" stroke-width="1" fill="none" fill-rule="evenodd">
        <g id="gaspal-logo" transform="translate(-383.000000, -269.000000)" fill-rule="nonzero">
            <g id="gas-station" transform="translate(400.500000, 287.000000)">
                <path d="M858.270127,267.145145 L858.270127,707.844223 C858.270127,744.750476 828.351698,774.668905 791.445445,774.668905 L791.445445,774.668905 C754.539192,774.668905 724.620763,744.750476 724.620763,707.844223 L724.620763,420.029116 C724.620763,360.406393 676.286996,312.072626 616.664273,312.072626 C607.651993,312.072626 598.675179,313.201136 589.943326,315.431818" id="Path-3" stroke="#FFFFFF" stroke-width="34.6875" stroke-linecap="square"></path>
                <path d="M701.059322,143.296434 L851.157839,254.344008" id="Path-5" stroke="#FFFFFF" stroke-width="34.6875" stroke-linecap="square"></path>
                <ellipse id="Oval" fill="#FFFFFF" transform="translate(816.036818, 264.588637) rotate(137.000000) translate(-816.036818, -264.588637) " cx="816.036818" cy="264.588637" rx="41.1099367" ry="55.4957887"></ellipse>
                <path d="M62.28,827.065083 L26.25,827.065083 C12.1667389,827.065083 0.75,838.481822 0.75,852.565083 L0.75,940.664384 C0.75,953.09079 10.8235931,963.164384 23.25,963.164384 L630.75,963.164384 C643.176407,963.164384 653.25,953.09079 653.25,940.664384 L653.25,852.565083 C653.25,838.481822 641.833261,827.065083 627.75,827.065083 L588.910678,827.065083 C584.370897,827.065083 580.690678,823.384863 580.690678,818.845083 L580.690678,61.6773762 C580.690678,27.6290213 553.089033,0.0273760331 519.040678,0.0273760331 L132.15,0.0273760331 C98.1016453,0.0273760331 70.5,27.6290213 70.5,61.6773762 L70.5,818.845083 C70.5,823.384863 66.8197806,827.065083 62.28,827.065083 Z" id="Path-4" stroke="#FFFFFF" stroke-width="34.6875" fill="#FFFFFF" stroke-linecap="square"></path>
                <path d="M167.875678,122.44938 L474.280042,122.44938 C493.57411,122.44938 509.215042,138.090312 509.215042,157.38438 L509.215042,360.426054 C509.215042,379.720121 493.57411,395.361054 474.280042,395.361054 L167.875678,395.361054 C148.58161,395.361054 132.940678,379.720121 132.940678,360.426054 L132.940678,211.216499 L132.940678,157.38438 C132.940678,138.090312 148.58161,122.44938 167.875678,122.44938 Z" id="Path-6" fill="#5B87E5"></path>
            </g>
        </g>
    </g>
</svg>